# Blender v2.66 (sub 1) OBJ File: ''
# www.blender.org
mtllib smcube.mtl
o Cube
v 1.000000 -1.000000 -1.000000
v 1.000000 -1.000000 1.000000
v -1.000000 -1.000000 1.000000
v -1.000000 -1.000000 -1.000000
v 1.000000 1.000000 -0.999999
v 0.999999 1.000000 1.000001
v -1.000000 1.000000 1.000000
v -1.000000 1.000000 -1.000000
vt 0.000000 0.334353
vt 0.332314 0.333333
vt 0.333333 0.665647
vt 0.333333 0.667686
vt 0.332314 1.000000
vt 0.000000 0.998981
vt 0.998981 0.333333
vt 1.000000 0.665647
vt 0.667686 0.666667
vt 0.334353 0.666667
vt 0.333333 0.334353
vt 0.666667 0.665647
vt 0.332314 0.000000
vt 0.333333 0.332314
vt 0.000000 0.001019
vt 0.334353 0.000000
vt 0.666667 0.001020
vt 0.665647 0.333333
vt 0.001020 0.666667
vt 0.666667 0.334353
vt 0.001020 0.333333
vn 0.577349 -0.577349 -0.577349
vn 0.577349 -0.577349 0.577349
vn -0.577349 -0.577349 0.577349
vn 0.577349 0.577349 -0.577349
vn -0.577349 0.577349 -0.577349
vn -0.577349 0.577349 0.577349
vn 0.577349 0.577349 0.577349
vn -0.577349 -0.577349 -0.577349
usemtl Material
s 1
f 1/1/1 2/2/2 3/3/3
f 5/4/4 8/5/5 7/6/6
f 1/7/1 5/8/4 6/9/7
f 2/10/2 6/11/7 3/12/3
f 3/13/3 7/14/6 4/15/8
f 5/16/4 1/17/1 4/18/8
f 4/19/8 1/1/1 3/3/3
f 6/19/7 5/4/4 7/6/6
f 2/20/2 1/7/1 6/9/7
f 6/11/7 7/18/6 3/12/3
f 7/14/6 8/21/5 4/15/8
f 8/14/5 5/16/4 4/18/8
